<?xml version="1.0" ?><!DOCTYPE svg  PUBLIC '-//W3C//DTD SVG 1.1//EN'  'http://www.w3.org/Graphics/SVG/1.1/DTD/svg11.dtd'><svg height="512px" style="enable-background:new 0 0 512 512;" version="1.1" viewBox="0 0 512 512" width="512px" xml:space="preserve" xmlns="http://www.w3.org/2000/svg" xmlns:xlink="http://www.w3.org/1999/xlink"><g id="_x31_78_x2C__interface_x2C__website_x2C__user_x2C__layout_x2C__design"><g><path d="M392.934,189.285H124.236c-6.443,0-12.324,2.646-16.586,6.909    c-4.264,4.238-6.91,10.118-6.91,16.587v184.905h315.69V212.781c0-6.371-2.572-12.201-6.726-16.439l-0.172-0.147    C405.27,191.932,399.39,189.285,392.934,189.285 M124.236,183.258h268.698c8.121,0,15.509,3.332,20.85,8.674l0.183,0.195    c5.243,5.316,8.49,12.643,8.49,20.654V400.7c0,1.665-1.347,3.013-3.014,3.013H97.727c-1.667,0-3.015-1.348-3.015-3.013V212.781    c0-8.109,3.333-15.484,8.674-20.85C108.728,186.59,116.115,183.258,124.236,183.258z M299.782,244.215    c-0.368,0.76-0.771,1.494-1.2,2.229l-0.11,0.196c-0.514,0.857-1.079,1.69-1.691,2.499l-0.024,0.024l0,0l-0.121,0.172l-0.037,0.049    c1.887,1.568,4.017,2.891,6.309,3.847c1.972,0.857,4.092,1.445,6.283,1.765c-0.182-0.418-0.379-0.834-0.588-1.227l0,0    c-1.199-2.254-2.72-4.311-4.508-6.1C302.796,246.371,301.35,245.22,299.782,244.215z M263.472,254.432    c0.784,0.245,1.605,0.466,2.427,0.662c1.739,0.392,3.576,0.588,5.499,0.588c5.452,0,10.499-1.715,14.615-4.631    c1.397-0.98,2.684-2.107,3.847-3.356l0.735-0.809l0.049-0.049l0.024-0.024l0.025-0.049l0.049-0.049l0.049-0.074l0,0l0.195-0.221    l0.049-0.073h0.013l0.184-0.221l0.05-0.073l0.012-0.024l0.037-0.024l0.037-0.074l0.049-0.049h0.012l0.232-0.318l0,0l0.086-0.122    l0.024-0.024c0.478-0.637,0.907-1.299,1.323-2.01l0.11-0.146l0.037-0.074l0.024-0.049l0.024-0.049l0,0l0.037-0.049l0.024-0.049    l0.037-0.049l0.012-0.025l0.011-0.049l0.037-0.049c0.245-0.416,0.467-0.857,0.686-1.299c-1.727-0.563-3.515-0.955-5.376-1.127    v-0.023h-0.086h-0.16l-0.012-0.025h-0.087h-0.036h-0.05h-0.073h-0.013l-0.084-0.024h-0.037h-0.122h-0.025h-0.086h-0.012    l-0.074-0.024h-0.062h-0.024h-0.098l0,0h-0.085h-0.049h-0.037l-0.086-0.024h-0.098h-0.037h-0.049h-0.074h-0.012h-0.086h-0.037    h-0.062h-0.06h-0.024h-0.086h-0.024h-0.062h-0.074h-0.024l-0.086-0.024h-0.013h-0.073h-0.049h-0.05h-0.084h-0.258l-0.074,0.024    h-0.184h-0.146h-0.111h-0.208h-0.037l-0.256,0.024h-0.037h-0.209h-0.11l-0.147,0.024h-0.17l-0.074,0.024h-0.246h-0.012    l-0.246,0.025l-0.06,0.023h-0.196l-0.123,0.025l-0.123,0.023l-0.194,0.025h-0.049l-0.246,0.024h-0.024l-0.221,0.049h-0.099    l-0.146,0.024l-0.16,0.024l-0.086,0.024l-0.233,0.025H281.7l-0.244,0.049l-0.049,0.024l-0.319,0.048l-0.109,0.025l-0.185,0.049    c-4.827,1.053-9.139,3.479-12.495,6.836C266.339,249.63,264.698,251.908,263.472,254.432z M292.346,253.99    c-0.87,0.76-1.775,1.471-2.72,2.156c-5.145,3.65-11.44,5.807-18.229,5.807c-2.314,0-4.618-0.27-6.847-0.76    c-1.055-0.244-2.107-0.539-3.124-0.857c-0.355,1.691-0.54,3.431-0.54,5.219c0,6.982,2.83,13.328,7.412,17.91    c4.569,4.582,10.902,7.424,17.898,7.424c6.982,0,13.315-2.842,17.896-7.424c4.582-4.582,7.425-10.928,7.425-17.91    c0-1.396-0.123-2.744-0.344-4.092c-3.772-0.171-7.398-1.053-10.73-2.475C297.491,257.739,294.759,256.049,292.346,253.99z     M288.854,320.951h12.655l-0.366-10.977h-0.013l0,0l-0.024,0.024l-0.037,0.049l-0.036,0.024l-0.024,0.025l-0.037,0.023    l-0.037,0.025l-0.024,0.023L288.854,320.951z M270.443,310.488l-0.539,10.463h11.429L270.443,310.488z M307.095,308.578    l0.517,15.313c0.049,1.642-1.25,3.038-2.905,3.088h-37.964c-1.652,0-3.013-1.348-3.013-3.014l0.809-15.51l-29.216,12.74v25.628    h100.721v-25.628L307.095,308.578z M296.01,306.496v-10.903c-3.088,1.005-6.396,1.567-9.813,1.567    c-3.75,0-7.326-0.661-10.671-1.861v11.735l9.579,9.212L296.01,306.496z M302.036,292.897v8.306c0.833-0.49,1.861-0.539,2.72-0.172    l0.062,0.025c0.208,0.073,0.415,0.146,0.6,0.27l34.829,15.166c1.126,0.489,1.813,1.592,1.813,2.744v30.601    c0,1.666-1.348,3.014-3.003,3.014H232.308c-1.653,0-3.013-1.348-3.013-3.014v-30.601c0-1.323,0.858-2.426,2.034-2.843    l35.231-15.362h0.037l0.024-0.023h0.024l0.05-0.025h0.01l0.05-0.023h0.012l0.037-0.025h0.024l0.037-0.024h0.037h0.024l0.049-0.024    l0,0l0.062-0.024h0.013h0.036h0.037l0.024-0.024h0.037h0.024l0.049-0.024l0,0h0.062h0.013h0.035h0.037l0.024-0.024h0.049h0.013    h0.049h0.024h0.037h0.037h0.024h0.049l0,0h0.062h0.013h0.036h0.037h0.024h0.062l0,0h0.049h0.023h0.036h0.037h0.013h0.062    l0.012,0.024h0.037h0.037h0.024h0.049v0.024h0.062h0.013h0.036l0.037,0.024h0.024h0.05l0.049,0.024h0.024l0.035,0.024h0.037h0.012    l0.05,0.024l0.061,0.025h0.013l0.037,0.023h0.037l0.012,0.025h0.049l0,0l0.05,0.023h0.024l0.024,0.025l0.037,0.024h0.024    l0.037,0.024h0.012l0.05,0.024l0.012,0.024h0.037l0.024,0.024l0.022,0.024h0.037l0.013,0.024l0.036,0.024h0.013l0.037,0.025    l0.024,0.024h0.024l0.013,0.024v-8.943c-2.059-1.299-3.945-2.793-5.647-4.483c-5.72-5.708-9.249-13.622-9.249-22.345    c0-8.697,3.529-16.611,9.249-22.32c3.283-3.282,7.277-5.83,11.748-7.423l0.086-0.049l0.195-0.05l0.54-0.195h0.035l0.283-0.098    l0.049-0.025l0.245-0.049l0.134-0.049l0.147-0.049l0.883-0.245l0.098-0.024l0.195-0.049l0.295-0.074l0.258-0.073h0.047    l0.295-0.073l0.295-0.049l0.134-0.025l0.172-0.049l0.221-0.049h0.086l0.293-0.049l0,0l0.308-0.073h0.086l0.219-0.049l0.172-0.024    l0.136-0.025l0.256-0.023h0.049l0.308-0.05h0.037l0.269-0.049h0.135l0.172-0.024l0.221-0.024h0.085l0.319-0.05l0.305-0.023h0.086    l0.233-0.024h0.172h0.134l0.271-0.024h0.049l0.308-0.025h0.047h0.271h0.135h0.185h0.219l0.099-0.023h0.319h0.108h0.099h0.123    l0.073,0.023h0.024h0.111h0.11h0.108h0.05h0.061h0.099h0.11h0.111h0.024l0.086,0.025h0.108h0.11h0.099h0.11l0.11,0.024    c7.998,0.44,15.202,3.896,20.494,9.187c5.723,5.709,9.262,13.623,9.262,22.32c0,8.723-3.539,16.637-9.262,22.345    C306.593,289.835,304.413,291.525,302.036,292.897z M190.632,218.711h-61.005v44.934h61.005V218.711z M126.612,212.684h67.035    c1.666,0,3.013,1.347,3.013,3.013v50.961c0,1.667-1.348,3.015-3.013,3.015h-67.035c-1.666,0-3.013-1.348-3.013-3.015v-50.961    C123.599,214.03,124.946,212.684,126.612,212.684z M371.238,368.139h-70.415v6.836h70.415V368.139z M297.811,362.137h76.44    c1.655,0,3.015,1.348,3.015,2.988v12.863c0,1.666-1.359,3.014-3.015,3.014h-76.44c-1.667,0-3.015-1.348-3.015-3.014v-12.863    C294.796,363.484,296.144,362.137,297.811,362.137z M197.284,362.137h76.442c1.665,0,3.013,1.348,3.013,2.988v12.863    c0,1.666-1.348,3.014-3.013,3.014h-76.442c-1.653,0-3.013-1.348-3.013-3.014v-12.863    C194.271,363.484,195.631,362.137,197.284,362.137z M270.712,368.139h-70.415v6.836h70.415V368.139z M400.639,211.85h-46.195    v6.861h46.195V211.85z M403.651,237.576h-52.21c-1.666,0-3.014-1.348-3.014-3.015v-12.765v-0.098v-0.073v-12.765    c0-1.666,1.348-3.014,3.014-3.014h52.21c1.655,0,3.015,1.348,3.015,3.014v12.765v0.073v0.098v12.765    C406.666,236.229,405.307,237.576,403.651,237.576z M127.201,317.889c-1.667,0-3.015-1.348-3.015-3.014s1.348-3.014,3.015-3.014    h65.858c1.665,0,3.013,1.348,3.013,3.014s-1.348,3.014-3.013,3.014H127.201z M127.201,283.783c-1.667,0-3.015-1.348-3.015-3.014    s1.348-3.014,3.015-3.014h65.858c1.665,0,3.013,1.348,3.013,3.014s-1.348,3.014-3.013,3.014H127.201z M127.201,306.52    c-1.667,0-3.015-1.348-3.015-3.014s1.348-3.013,3.015-3.013h65.858c1.665,0,3.013,1.347,3.013,3.013s-1.348,3.014-3.013,3.014    H127.201z M127.201,295.151c-1.667,0-3.015-1.347-3.015-3.013s1.348-3.014,3.015-3.014h65.858c1.665,0,3.013,1.348,3.013,3.014    s-1.348,3.013-3.013,3.013H127.201z M127.201,340.625c-1.667,0-3.015-1.348-3.015-3.014s1.348-3.014,3.015-3.014h65.858    c1.665,0,3.013,1.348,3.013,3.014s-1.348,3.014-3.013,3.014H127.201z M127.201,329.256c-1.667,0-3.015-1.348-3.015-3.013    c0-1.666,1.348-3.014,3.015-3.014h65.858c1.665,0,3.013,1.348,3.013,3.014c0,1.665-1.348,3.013-3.013,3.013H127.201z     M255.584,135.678c0,1.127,0.733,2.303,1.689,2.695c2.01,1.004,4.324-0.539,4.324-2.695v-6.027c0-1.15-0.735-2.327-1.69-2.719    c-2.009-1.006-4.323,0.539-4.323,2.719V135.678z M255.584,108.359v3.234c0,1.127,0.733,2.328,1.689,2.695    c2.01,1.004,4.324-0.515,4.324-2.695v-3.234c4.704-0.661,8.932-2.866,12.153-6.076c3.883-3.871,6.283-9.236,6.283-15.141    c0-5.93-2.4-11.271-6.296-15.166c-3.871-3.871-9.236-6.272-15.153-6.272c-5.819,0-11.111,2.328-14.982,6.125l-0.172,0.147    c-3.871,3.896-6.271,9.236-6.271,15.166c0,5.904,2.4,11.27,6.284,15.166C246.652,105.518,250.88,107.698,255.584,108.359z     M307.023,127.543c0-1.127-0.736-2.326-1.692-2.694c-2.009-1.005-4.336,0.515-4.336,2.694v6.027c0,1.127,0.747,2.328,1.702,2.695    c2.009,1.005,4.326-0.514,4.326-2.695V127.543z M326.893,129.356c1.139,0,2.315-0.735,2.707-1.69    c0.991-2.009-0.539-4.336-2.707-4.336h-6.028c-1.139,0-2.327,0.734-2.706,1.689c-1.005,2.01,0.527,4.337,2.706,4.337H326.893z     M350.963,129.356c1.14,0,2.329-0.735,2.708-1.69c1.004-2.009-0.526-4.336-2.708-4.336h-6.015c-1.139,0-2.327,0.734-2.706,1.689    c-1.006,2.01,0.527,4.337,2.706,4.337H350.963z M375.047,129.356c1.14,0,2.329-0.735,2.708-1.69    c1.006-2.009-0.526-4.336-2.708-4.336h-6.015c-1.139,0-2.327,0.734-2.706,1.689c-1.006,2.01,0.527,4.337,2.706,4.337H375.047z     M399.131,129.356c1.129,0,2.329-0.735,2.696-1.69c1.005-2.009-0.515-4.336-2.696-4.336h-6.027c-1.139,0-2.326,0.734-2.705,1.689    c-0.994,2.01,0.525,4.337,2.705,4.337H399.131z M423.203,129.356c1.141,0,2.328-0.735,2.708-1.69    c1.005-2.009-0.526-4.336-2.708-4.336h-6.014c-1.141,0-2.328,0.734-2.707,1.689c-1.006,2.01,0.526,4.337,2.707,4.337H423.203z     M445.364,123.33h-4.091c-1.141,0-2.328,0.734-2.707,1.689c-1.006,2.01,0.526,4.337,2.707,4.337h4.091v12.226    c0,1.666,1.359,3.014,3.015,3.014h34.606c1.653,0,3.014-1.348,3.014-3.014v-30.479c0-1.666-1.36-3.014-3.014-3.014h-34.606    c-1.655,0-3.015,1.348-3.015,3.014V123.33z M213.725,127.543c0-1.127-0.748-2.326-1.691-2.694    c-2.009-1.005-4.324,0.515-4.324,2.694v6.027c0,1.127,0.735,2.328,1.689,2.695c2.009,1.005,4.326-0.514,4.326-2.695V127.543z     M187.84,123.33c-1.141,0-2.329,0.734-2.708,1.689c-1.006,2.01,0.526,4.337,2.708,4.337h6.026c1.128,0,2.316-0.735,2.695-1.69    c1.005-2.009-0.526-4.336-2.695-4.336H187.84z M163.754,123.33c-1.126,0-2.327,0.734-2.693,1.689    c-1.005,2.01,0.514,4.337,2.693,4.337h6.028c1.128,0,2.329-0.735,2.695-1.69c1.005-2.009-0.514-4.336-2.695-4.336H163.754z     M139.67,123.33c-1.126,0-2.327,0.734-2.693,1.689c-1.005,2.01,0.514,4.337,2.693,4.337h6.028c1.139,0,2.329-0.735,2.708-1.69    c1.005-2.009-0.526-4.336-2.708-4.336H139.67z M115.599,123.33c-1.139,0-2.327,0.734-2.706,1.689    c-1.005,2.01,0.526,4.337,2.706,4.337h6.015c1.139,0,2.329-0.735,2.708-1.69c1.004-2.009-0.526-4.336-2.708-4.336H115.599z     M91.515,123.33c-1.139,0-2.314,0.734-2.706,1.689c-1.005,2.01,0.526,4.337,2.706,4.337h6.015c1.151,0,2.329-0.735,2.72-1.69    c1.004-2.009-0.539-4.336-2.72-4.336H91.515z M68.668,129.356h4.791c1.139,0,2.316-0.735,2.708-1.69    c1.004-2.009-0.526-4.336-2.708-4.336h-4.791c-0.661-4.705-2.865-8.943-6.075-12.152c-3.871-3.871-9.237-6.273-15.154-6.273    c-5.818,0-11.111,2.328-14.982,6.126l-0.172,0.147c-3.883,3.895-6.284,9.236-6.284,15.166c0,5.904,2.4,11.27,6.296,15.166    c3.883,3.87,9.237,6.271,15.142,6.271c5.917,0,11.283-2.401,15.154-6.297C65.803,138.299,68.007,134.061,68.668,129.356z     M207.709,157.654c0,1.128,0.735,2.328,1.689,2.695c0.356,0.196,0.735,0.294,1.092,0.318H102.7    c-9.077,0-17.346,3.725-23.324,9.702c-6.003,5.979-9.727,14.26-9.727,23.35v252.576h377.872V193.72    c0-9.09-3.724-17.371-9.714-23.35c-5.991-5.978-14.26-9.702-23.337-9.702H304.217c1.508-0.122,2.807-1.372,2.807-3.014v-6.026    c0-1.128-0.736-2.327-1.692-2.695c-2.009-1.005-4.336,0.515-4.336,2.695v6.026c0,1.128,0.747,2.328,1.702,2.695    c0.356,0.196,0.723,0.294,1.092,0.318h-44.996c1.506-0.122,2.805-1.372,2.805-3.014v-3.92c0-1.15-0.735-2.327-1.69-2.719    c-2.009-1.006-4.323,0.539-4.323,2.719v3.92c0,1.128,0.733,2.328,1.689,2.695c0.354,0.196,0.735,0.294,1.09,0.318h-47.444    c1.495-0.122,2.806-1.372,2.806-3.014v-6.026c0-1.128-0.748-2.327-1.691-2.695c-2.009-1.005-4.324,0.515-4.324,2.695V157.654z     M354.443,231.549h46.195v-6.836h-46.195V231.549z" style="fill-rule:evenodd;clip-rule:evenodd;"/></g></g><g id="Layer_1"/></svg>